
        <svg xmlns="http://www.w3.org/2000/svg" xmlns:xlink="http://www.w3.org/1999/xlink" version="1.1" width="3200" height="1000" viewBox="0 0 3200 1000">
			
			<g transform="scale(10) translate(10, 10)">
				<defs id="SvgjsDefs1032"/><g id="SvgjsG1033" featureKey="monogramFeature-0" transform="matrix(1.9047619047619047,0,0,1.9047619047619047,0,-34.285714285714285)" fill="#000"><path d="M33.3 60 c-4.56 0 -9.3 -0.66 -9.3 -8.82 c0 -4.08 -1.02 -4.08 -1.92 -4.08 c-2.1 0 -3.18 0.06 -4.08 0.06 l0 4.02 c0 6.24 -2.4 8.82 -8.88 8.82 c-4.26 0 -9.12 -1.26 -9.12 -8.82 l0 -24.18 c0 -5.7 1.74 -9 9.12 -9 c7.5 0 8.88 2.88 8.88 9 c0 3.6 0.78 3.84 2.76 3.84 l3.24 0 l0 -3.84 c0 -7.86 4.92 -9 9.24 -9 c6.24 0 8.76 2.76 8.76 9 l0 24.18 c0 7.68 -4.2 8.82 -8.7 8.82 z M18 43.019999999999996 l4.08 0 c6.06 0 6.06 6.12 6.06 8.16 c0 4.14 0.9 4.68 5.16 4.68 c3.72 0 4.56 -0.36 4.56 -4.68 l0 -24.18 c0 -3.84 -0.78 -4.86 -4.62 -4.86 c-4.14 0 -5.1 1.02 -5.1 4.86 l0 3.84 c2.46 0 5.4 0.42 6.84 3.48 c2.04 4.62 -2.22 9.96 -7.32 7.74 c-3.6 -1.44 -3.66 -5.58 -3.66 -7.08 l-3.24 0 c-6.18 0 -6.9 -4.62 -6.9 -7.98 c0 -1.62 0 -3.48 -0.66 -4.14 c-0.42 -0.48 -1.8 -0.72 -4.08 -0.72 c-2.22 0 -3.54 0.3 -3.96 0.84 c-0.48 0.54 -1.02 1.8 -1.02 4.02 l0 24.18 c0 3.36 0.66 4.68 4.98 4.68 c2.1 0 3.42 -0.54 3.96 -1.08 c0.54 -0.48 0.78 -1.68 0.78 -3.6 l0 -4.02 c-2.4 -0.18 -5.34 -0.48 -6.72 -3.12 c-2.58 -4.8 2.16 -10.56 7.5 -7.98 c2.7 1.26 3.18 4.14 3.36 6.96 z M10.74 42.06 c0.42 0.72 1.74 0.9 3.12 0.96 c-0.18 -2.16 -0.36 -2.94 -1.02 -3.24 c-1.8 -0.84 -2.7 1.2 -2.1 2.28 z M28.14 34.980000000000004 c0 1.62 0.18 3.42 1.8 3.42 c1.14 0 1.8 -1.2 1.32 -2.34 c-0.3 -0.54 -0.66 -0.9 -3.12 -1.08 z"/></g><g id="SvgjsG1034" featureKey="nameFeature-0" transform="matrix(1.9737488036015134,0,0,1.9737488036015134,92.79265909765805,-11.244836738664407)" fill="#000"><path d="M21.445 11.777000000000001 l5.8594 0 l0 28.223 l-5.8594 0 l0 -11.602 l-11.934 0 l0 11.602 l-5.8594 0 l0 -28.223 l5.8594 0 l0 11.523 l11.934 0 l0 -11.523 z M38.4569875 40 l0 -28.223 l5.8594 0 l0 28.223 l-5.8594 0 z M71.816875 11.777000000000001 l0 5.1563 l-6.6992 0 l0 23.066 l-5.8008 0 l0 -23.066 l-6.7383 0 l0 -5.1563 l19.238 0 z M98.9843125 40 l-2.0508 -5.8203 l-11.855 0 l-2.0508 5.8203 l-5.9961 0 l10.391 -28.223 l7.168 0 l10.391 28.223 l-5.9961 0 z M86.7973125 29.277 l8.418 0 l-4.1992 -11.973 z"/></g>
			</g>
		</svg>
	